<svg width="150" height="150" viewBox="0 0 150 150" fill="none" xmlns="http://www.w3.org/2000/svg">
<path d="M72.2697 99.2508C73.3119 101.056 75.9173 101.056 76.9595 99.2508L107.443 46.4518C108.485 44.6467 107.182 42.3904 105.098 42.3904H44.1311C42.0468 42.3904 40.744 44.6467 41.7862 46.4518L72.2697 99.2508Z" fill="url(#paint0_linear_306_372)"/>
<path d="M70.9974 27.4817V21.1674H79.0886V27.3548C81.9654 27.6086 84.726 28.1903 87.3701 29.0999V36.0806C83.6683 34.5998 79.6491 33.8595 75.3127 33.8595C70.7647 33.8595 68.4907 35.0229 68.4907 37.3498C68.4907 39.5709 69.8128 40.6815 72.457 40.6815H77.8511C85.2548 40.6815 88.9566 44.0131 88.9566 50.6765C88.9566 56.5148 85.6673 59.9099 79.0886 60.8618V66.5415H70.9974V60.9888C67.8667 60.7349 64.9686 60.1532 62.3033 59.2436V52.263C66.0052 53.7437 70.2782 54.4841 75.1223 54.4841C78.7395 54.4841 80.5482 53.3206 80.5482 50.9938C80.5482 48.7726 79.3318 47.6621 76.8992 47.6621H70.8705C64.1014 47.6621 60.7168 44.3304 60.7168 37.6671C60.7168 31.8499 64.1437 28.4548 70.9974 27.4817Z" fill="white"/>
<path d="M35.8598 124.963V122.573C37.2876 123.104 38.9014 123.37 40.7011 123.37C42.8861 123.37 43.9785 122.639 43.9785 121.178C43.9785 120.115 43.3078 119.584 41.9663 119.584H39.7349C36.8195 119.584 35.3617 118.256 35.3617 115.6C35.3617 112.678 37.4371 111.216 41.5877 111.216C43.1816 111.216 44.6924 111.449 46.1202 111.914V114.305C44.6924 113.773 43.1816 113.508 41.5877 113.508C39.1969 113.508 38.0016 114.205 38.0016 115.6C38.0016 116.662 38.5793 117.193 39.7349 117.193H41.9663C45.0676 117.193 46.6183 118.522 46.6183 121.178C46.6183 124.167 44.6459 125.661 40.7011 125.661C38.9014 125.661 37.2876 125.428 35.8598 124.963ZM62.6923 111.316V113.587H55.5598V117.174H62.3536V119.534H55.5299V123.27H62.8318V125.561H52.9399V111.316H62.6923ZM69.3526 125.541V111.316H75.8277C78.7364 111.316 80.1908 112.588 80.1908 115.131C80.1908 116.851 79.0585 118.276 76.7939 119.405L81.3065 125.561H77.9794L73.6461 119.355V118.15C76.1697 117.718 77.4315 116.739 77.4315 115.211C77.4315 114.162 76.8404 113.637 75.6583 113.637H72.0423V125.541H69.3526ZM113.52 111.316V113.587H106.388V117.174H113.182V119.534H106.358V123.27H113.66V125.561H103.768V111.316H113.52Z" fill="white"/>
<g filter="url(#filter0_d_306_372)">
<path d="M91.2648 124.901C91.5952 125.45 92.3914 125.45 92.7218 124.901L100.421 112.1C100.761 111.533 100.353 110.811 99.6922 110.811H84.2944C83.6332 110.811 83.2252 111.533 83.5659 112.1L91.2648 124.901Z" fill="url(#paint1_linear_306_372)"/>
</g>
<defs>
<filter id="filter0_d_306_372" x="80.0428" y="110.811" width="23.901" height="21.3021" filterUnits="userSpaceOnUse" color-interpolation-filters="sRGB">
<feFlood flood-opacity="0" result="BackgroundImageFix"/>
<feColorMatrix in="SourceAlpha" type="matrix" values="0 0 0 0 0 0 0 0 0 0 0 0 0 0 0 0 0 0 127 0" result="hardAlpha"/>
<feOffset dy="3.40022"/>
<feGaussianBlur stdDeviation="1.70011"/>
<feComposite in2="hardAlpha" operator="out"/>
<feColorMatrix type="matrix" values="0 0 0 0 0 0 0 0 0 0 0 0 0 0 0 0 0 0 0.25 0"/>
<feBlend mode="normal" in2="BackgroundImageFix" result="effect1_dropShadow_306_372"/>
<feBlend mode="normal" in="SourceGraphic" in2="effect1_dropShadow_306_372" result="shape"/>
</filter>
<linearGradient id="paint0_linear_306_372" x1="58.3688" y1="43.7442" x2="76.5409" y2="91.6099" gradientUnits="userSpaceOnUse">
<stop stop-color="#EB1B09"/>
<stop offset="0.197115" stop-color="#F6790D"/>
<stop offset="0.384615" stop-color="#FED32F"/>
<stop offset="0.576923" stop-color="#6CB645"/>
<stop offset="0.759615" stop-color="#2491BB"/>
<stop offset="1" stop-color="#4B3A8A"/>
</linearGradient>
<linearGradient id="paint1_linear_306_372" x1="87.9065" y1="111" x2="92.0811" y2="123.682" gradientUnits="userSpaceOnUse">
<stop stop-color="#EB1B09"/>
<stop offset="0.197115" stop-color="#F6790D"/>
<stop offset="0.384615" stop-color="#FED32F"/>
<stop offset="0.576923" stop-color="#6CB645"/>
<stop offset="0.759615" stop-color="#2491BB"/>
<stop offset="1" stop-color="#4B3A8A"/>
</linearGradient>
</defs>
</svg>
