<svg width="167" height="82" viewBox="0 0 167 82" fill="none" xmlns="http://www.w3.org/2000/svg">
<path d="M25.8503 50.1119V46.5594C27.9719 47.3488 30.3698 47.7435 33.0441 47.7435C36.2906 47.7435 37.9139 46.6581 37.9139 44.4871C37.9139 42.9082 36.9173 42.1188 34.9239 42.1188H31.6083C27.2762 42.1188 25.1102 40.1452 25.1102 36.1979C25.1102 31.856 28.1939 29.685 34.3614 29.685C36.7298 29.685 38.9747 30.0304 41.0964 30.7212V34.2737C38.9747 33.4842 36.7298 33.0895 34.3614 33.0895C30.8089 33.0895 29.0327 34.1257 29.0327 36.1979C29.0327 37.7768 29.8912 38.5663 31.6083 38.5663H34.9239C39.5323 38.5663 41.8365 40.5399 41.8365 44.4871C41.8365 48.9277 38.9057 51.148 33.0441 51.148C30.3698 51.148 27.9719 50.8026 25.8503 50.1119ZM65.7211 29.8331V33.2079H55.1228V38.5367H65.2178V42.0448H55.0784V47.5955H65.9283V51H51.2299V29.8331H65.7211ZM75.6177 50.9704V29.8331H85.2391C89.5613 29.8331 91.7224 31.7228 91.7224 35.5022C91.7224 38.0581 90.0399 40.1748 86.6749 41.8523L93.3802 51H88.4363L81.9974 41.7783V39.9873C85.7473 39.3458 87.6222 37.8903 87.6222 35.6207C87.6222 34.0615 86.7439 33.2819 84.9874 33.2819H79.6143V50.9704H75.6177ZM141.247 29.8331V33.2079H130.649V38.5367H140.744V42.0448H130.604V47.5955H141.454V51H126.756V29.8331H141.247Z" fill="white"/>
<g filter="url(#filter0_d_315_345)">
<path d="M108.177 51.2517C108.668 52.0678 109.851 52.0678 110.342 51.2517L121.782 32.2296C122.289 31.3878 121.682 30.3156 120.7 30.3156H97.8199C96.8375 30.3156 96.2312 31.3878 96.7375 32.2296L108.177 51.2517Z" fill="url(#paint0_linear_315_345)"/>
</g>
<defs>
<filter id="filter0_d_315_345" x="91.5024" y="30.3156" width="35.515" height="31.6531" filterUnits="userSpaceOnUse" color-interpolation-filters="sRGB">
<feFlood flood-opacity="0" result="BackgroundImageFix"/>
<feColorMatrix in="SourceAlpha" type="matrix" values="0 0 0 0 0 0 0 0 0 0 0 0 0 0 0 0 0 0 127 0" result="hardAlpha"/>
<feOffset dy="5.05244"/>
<feGaussianBlur stdDeviation="2.52622"/>
<feComposite in2="hardAlpha" operator="out"/>
<feColorMatrix type="matrix" values="0 0 0 0 0 0 0 0 0 0 0 0 0 0 0 0 0 0 0.25 0"/>
<feBlend mode="normal" in2="BackgroundImageFix" result="effect1_dropShadow_315_345"/>
<feBlend mode="normal" in="SourceGraphic" in2="effect1_dropShadow_315_345" result="shape"/>
</filter>
<linearGradient id="paint0_linear_315_345" x1="103.187" y1="30.5962" x2="109.39" y2="49.4404" gradientUnits="userSpaceOnUse">
<stop stop-color="#EB1B09"/>
<stop offset="0.197115" stop-color="#F6790D"/>
<stop offset="0.384615" stop-color="#FED32F"/>
<stop offset="0.576923" stop-color="#6CB645"/>
<stop offset="0.759615" stop-color="#2491BB"/>
<stop offset="1" stop-color="#4B3A8A"/>
</linearGradient>
</defs>
</svg>
