<svg width="130" height="130" viewBox="0 0 130 130" fill="none" xmlns="http://www.w3.org/2000/svg">
<path d="M62.2697 102.251C63.3119 104.056 65.9173 104.056 66.9595 102.251L97.443 49.4518C98.4852 47.6467 97.1825 45.3904 95.0981 45.3904H34.1311C32.0468 45.3904 30.744 47.6467 31.7862 49.4518L62.2697 102.251Z" fill="url(#paint0_linear_2_378)"/>
<path d="M60.9974 30.4817V24.1674H69.0886V30.3548C71.9654 30.6086 74.726 31.1903 77.3701 32.0999V39.0806C73.6683 37.5998 69.6491 36.8595 65.3127 36.8595C60.7647 36.8595 58.4907 38.0229 58.4907 40.3498C58.4907 42.5709 59.8128 43.6814 62.457 43.6814H67.8511C75.2548 43.6814 78.9566 47.0131 78.9566 53.6764C78.9566 59.5148 75.6673 62.9099 69.0886 63.8618V69.5415H60.9974V63.9888C57.8667 63.7349 54.9686 63.1532 52.3033 62.2436V55.263C56.0052 56.7437 60.2782 57.4841 65.1223 57.4841C68.7395 57.4841 70.5482 56.3206 70.5482 53.9937C70.5482 51.7726 69.3318 50.6621 66.8992 50.6621H60.8705C54.1014 50.6621 50.7168 47.3304 50.7168 40.6671C50.7168 34.8499 54.1437 31.4548 60.9974 30.4817Z" fill="#1E2235"/>
<defs>
<linearGradient id="paint0_linear_2_378" x1="48.3688" y1="46.7442" x2="66.5409" y2="94.61" gradientUnits="userSpaceOnUse">
<stop stop-color="#EB1B09"/>
<stop offset="0.197115" stop-color="#F6790D"/>
<stop offset="0.384615" stop-color="#FED32F"/>
<stop offset="0.576923" stop-color="#6CB645"/>
<stop offset="0.759615" stop-color="#2491BB"/>
<stop offset="1" stop-color="#4B3A8A"/>
</linearGradient>
</defs>
</svg>
