<svg width="262" height="130" viewBox="0 0 262 130" fill="none" xmlns="http://www.w3.org/2000/svg">
<path d="M62.2697 102.251C63.3119 104.056 65.9173 104.056 66.9595 102.251L97.443 49.4518C98.4852 47.6467 97.1825 45.3904 95.0981 45.3904H34.1311C32.0468 45.3904 30.744 47.6467 31.7862 49.4518L62.2697 102.251Z" fill="#FF66CC"/>
<path d="M60.9974 30.4817V24.1674H69.0886V30.3548C71.9654 30.6086 74.726 31.1903 77.3701 32.0999V39.0806C73.6683 37.5998 69.6491 36.8595 65.3127 36.8595C60.7647 36.8595 58.4907 38.0229 58.4907 40.3498C58.4907 42.5709 59.8128 43.6815 62.457 43.6815H67.8511C75.2548 43.6815 78.9566 47.0131 78.9566 53.6765C78.9566 59.5148 75.6673 62.9099 69.0886 63.8618V69.5415H60.9974V63.9888C57.8667 63.7349 54.9686 63.1532 52.3033 62.2436V55.263C56.0052 56.7437 60.2782 57.4841 65.1223 57.4841C68.7395 57.4841 70.5482 56.3206 70.5482 53.9938C70.5482 51.7726 69.3318 50.6621 66.8992 50.6621H60.8705C54.1014 50.6621 50.7168 47.3304 50.7168 40.6671C50.7168 34.8499 54.1437 31.4548 60.9974 30.4817Z" fill="#1E2235"/>
<path d="M120.076 73.7263V70.1739C122.198 70.9633 124.596 71.358 127.27 71.358C130.517 71.358 132.14 70.2725 132.14 68.1016C132.14 66.5227 131.143 65.7332 129.15 65.7332H125.834C121.502 65.7332 119.336 63.7596 119.336 59.8124C119.336 55.4705 122.42 53.2995 128.587 53.2995C130.956 53.2995 133.201 53.6449 135.322 54.3357V57.8881C133.201 57.0987 130.956 56.704 128.587 56.704C125.035 56.704 123.259 57.7401 123.259 59.8124C123.259 61.3913 124.117 62.1807 125.834 62.1807H129.15C133.758 62.1807 136.062 64.1544 136.062 68.1016C136.062 72.5422 133.132 74.7625 127.27 74.7625C124.596 74.7625 122.198 74.4171 120.076 73.7263ZM159.947 53.4475V56.8224H149.349V62.1511H159.444V65.6592H149.304V71.21H160.154V74.6145H145.456V53.4475H159.947ZM169.844 74.5849V53.4475H179.465C183.787 53.4475 185.948 55.3373 185.948 59.1167C185.948 61.6725 184.266 63.7892 180.901 65.4668L187.606 74.6145H182.662L176.223 65.3928V63.6017C179.973 62.9603 181.848 61.5048 181.848 59.2351C181.848 57.676 180.97 56.8964 179.213 56.8964H173.84V74.5849H169.844ZM235.473 53.4475V56.8224H224.875V62.1511H234.97V65.6592H224.83V71.21H235.68V74.6145H220.982V53.4475H235.473Z" fill="black"/>
<g filter="url(#filter0_d_2_372)">
<path d="M202.403 74.8661C202.894 75.6823 204.077 75.6823 204.568 74.8661L216.008 55.8441C216.514 55.0022 215.908 53.93 214.926 53.93H192.046C191.063 53.93 190.457 55.0022 190.963 55.8441L202.403 74.8661Z" fill="url(#paint0_linear_2_372)"/>
</g>
<defs>
<filter id="filter0_d_2_372" x="185.728" y="53.93" width="35.515" height="31.6531" filterUnits="userSpaceOnUse" color-interpolation-filters="sRGB">
<feFlood flood-opacity="0" result="BackgroundImageFix"/>
<feColorMatrix in="SourceAlpha" type="matrix" values="0 0 0 0 0 0 0 0 0 0 0 0 0 0 0 0 0 0 127 0" result="hardAlpha"/>
<feOffset dy="5.05244"/>
<feGaussianBlur stdDeviation="2.52622"/>
<feComposite in2="hardAlpha" operator="out"/>
<feColorMatrix type="matrix" values="0 0 0 0 0 0 0 0 0 0 0 0 0 0 0 0 0 0 0.25 0"/>
<feBlend mode="normal" in2="BackgroundImageFix" result="effect1_dropShadow_2_372"/>
<feBlend mode="normal" in="SourceGraphic" in2="effect1_dropShadow_2_372" result="shape"/>
</filter>
<linearGradient id="paint0_linear_2_372" x1="197.413" y1="54.2107" x2="203.616" y2="73.0548" gradientUnits="userSpaceOnUse">
<stop stop-color="#EB1B09"/>
<stop offset="0.197115" stop-color="#F6790D"/>
<stop offset="0.384615" stop-color="#FED32F"/>
<stop offset="0.576923" stop-color="#6CB645"/>
<stop offset="0.759615" stop-color="#2491BB"/>
<stop offset="1" stop-color="#4B3A8A"/>
</linearGradient>
</defs>
</svg>
